# xmcd
#
# Track frame offsets:
#	150
#	15788
#	31289
#	49219
#	65889
#	85794
#	100443
#	116251
#	132494
#	152346
#	173573
#	196229
#	211209
#	231009
#	248800
#	268358
#	287176
#	309773
#	323103
#	342075
#
# Disc length: 4758 seconds
#
# Revision: 0
# Processed by: cddbd v1.5.1PL0 Copyright (c) Steve Scherf et al.
# Submitted via: dBpowerAMP V4.0
#
DISCID=0f129414
DTITLE=Logan - Logan's CD
DYEAR=1900
DGENRE=
TTITLE0=cool
TTITLE1=cool
TTITLE2=cool
TTITLE3=cool
TTITLE4=cool
TTITLE5=cool
TTITLE6=cool
TTITLE7=cool
TTITLE8=cool
TTITLE9=logan
TTITLE10=logan
TTITLE11=lo
TTITLE12=la
TTITLE13=lb
TTITLE14=lc
TTITLE15=ld
TTITLE16=le
TTITLE17=lf
TTITLE18=lg
TTITLE19=logans
EXTD=
EXTT0=
EXTT1=
EXTT2=
EXTT3=
EXTT4=
EXTT5=
EXTT6=
EXTT7=
EXTT8=
EXTT9=
EXTT10=
EXTT11=
EXTT12=
EXTT13=
EXTT14=
EXTT15=
EXTT16=
EXTT17=
EXTT18=
EXTT19=
PLAYORDER=
